<svg xmlns="http://www.w3.org/2000/svg" viewBox="0 0 32 32" width="32" height="32">
  <path fill="#609926" d="M27.857 17.256c0 3.273-2.653 5.926-5.926 5.926H10.07c-3.274 0-5.927-2.653-5.927-5.926 0-3.274 2.653-5.927 5.927-5.927h11.86c3.274 0 5.927 2.653 5.927 5.927z"/>
  <circle fill="#fff" cx="10.455" cy="17.256" r="2.727"/>
  <circle fill="#609926" cx="10.455" cy="17.256" r="1.364"/>
  <path fill="#609926" d="M19.737 13.848l-.849-.849-2.121 2.121.849.849 2.121-2.121zm-2.97 2.97l-.849-.849-2.121 2.121.849.849 2.121-2.121zm5.94-.001l-.849-.849-2.121 2.121.849.849 2.121-2.121z"/>
</svg>